<svg width="500" height="292" viewBox="0 0 500 292" fill="none" xmlns="http://www.w3.org/2000/svg">
<g clip-path="url(#clip0_1927_14)">
<path d="M35.294 292C140.894 87.3867 394.609 16.3153 466.094 0H474.326C416.455 12.3609 147.376 80.2289 37.484 292H35.294ZM29.17 292C126.57 105.244 342.156 24.6828 424.21 0H430.474C353.623 22.4107 131 101.823 31.316 292H29.17ZM23 292C114.452 117.528 303.9 30.9093 387.376 0H392.542C312.01 29.233 118.193 115.312 25.142 292H23ZM16.584 292C102.908 127.116 271.8 36.0834 353.523 0H357.959C278.135 34.7476 106.218 125.507 18.683 292H16.584ZM9.972 292C91.581 134.963 243.243 40.5255 321.713 0H325.6C248.436 39.433 94.62 133.773 12.061 292H9.972ZM3.1 292C80.185 141.603 216.877 44.4519 291.353 0H294.8C221.242 43.5597 82.976 140.724 5.145 292H3.1ZM0 284.038C73.125 143.668 193.276 47.0845 262.082 0H265.242C196.48 46.75 73.533 144.756 0 288.002V284.038ZM0 269.318C68.765 141.299 171.728 48.3382 233.669 0H236.56C174.485 48.195 69.261 142.628 0 273.187V269.318ZM0 253.788C63.532 137.268 150.924 48.8059 205.957 0H208.632C153.358 48.8179 64.094 138.723 0 257.504V253.788ZM0 236.494C57.489 131.23 130.673 48.4133 178.788 0H181.294C132.851 48.5765 58.115 132.874 0 240.251V236.494ZM0 217.187C50.72 123.226 110.821 47.0775 152.071 0H154.441C112.808 47.3799 51.393 124.977 0 220.925V217.187ZM0 194.911C43.3 112.727 91.326 44.6101 125.763 0H128C93.143 45.0547 43.992 114.637 0 198.689V194.911ZM0 168.813C35.264 99.3851 72.105 40.7819 99.779 0H101.922C73.8 41.3727 35.985 101.445 0 172.707V168.813ZM0 137.696C26.671 82.5351 53.138 35.2202 74.072 0H76.138C54.726 35.9693 27.413 84.7942 0 141.779V137.696ZM0 100.09C17.626 61.303 34.466 27.3114 48.612 0H50.607C35.958 28.2467 18.37 63.7613 0 104.372V100.09ZM0 53.7516C8.334 33.9816 16.222 15.9218 23.361 0H25.3C17.618 17.1235 9.064 36.7073 0 58.3009V53.7516ZM0.2 0C0.132 0.176241 0.068 0.338464 0 0.515706V0H0.2Z" fill="#405189" fill-opacity="0.5"/>
</g>
<defs>
<clipPath id="clip0_1927_14">
<rect width="500" height="292" fill="white"/>
</clipPath>
</defs>
</svg>
